<svg width="1879" height="547" viewBox="0 0 1879 547" fill="none" xmlns="http://www.w3.org/2000/svg">
<path d="M162.033 495.196C162.033 433.857 211.73 384.16 273.069 384.16" stroke="white" stroke-width="102" stroke-linecap="round" stroke-linejoin="round"/>
<path d="M717.268 384.16C778.606 384.16 828.303 433.857 828.303 495.196H939.338V384.16" stroke="white" stroke-width="102" stroke-linecap="round" stroke-linejoin="round"/>
<path d="M1050.43 51V162.035C1111.77 162.035 1161.46 211.732 1161.46 273.071" stroke="white" stroke-width="102" stroke-linecap="round" stroke-linejoin="round"/>
<path d="M939.394 51V273.071" stroke="white" stroke-width="102" stroke-linecap="round" stroke-linejoin="round"/>
<path d="M1272.5 51H1383.59V162.035" stroke="white" stroke-width="102" stroke-linecap="round" stroke-linejoin="round"/>
<path d="M1272.5 495.196H1161.46L1050.43 384.16" stroke="white" stroke-width="102" stroke-linecap="round" stroke-linejoin="round"/>
<path d="M1272.5 384.157H1383.59V273.066" stroke="white" stroke-width="102" stroke-linecap="round" stroke-linejoin="round"/>
<path d="M1272.5 162.039V273.074" stroke="white" stroke-width="102" stroke-linecap="round" stroke-linejoin="round"/>
<path d="M273.072 51V273.071" stroke="white" stroke-width="102" stroke-linecap="round" stroke-linejoin="round"/>
<path d="M495.196 273.066H384.16" stroke="white" stroke-width="102" stroke-linecap="round" stroke-linejoin="round"/>
<path d="M384.16 51H495.196" stroke="white" stroke-width="102" stroke-linecap="round" stroke-linejoin="round"/>
<path d="M162.035 51V162.035H51" stroke="white" stroke-width="102" stroke-linecap="round" stroke-linejoin="round"/>
<path d="M162.035 273.066L51 384.157V495.192" stroke="white" stroke-width="102" stroke-linecap="round" stroke-linejoin="round"/>
<path d="M606.233 273.074H828.359L939.394 162.039" stroke="white" stroke-width="102" stroke-linecap="round" stroke-linejoin="round"/>
<path d="M495.194 384.165V162.039" stroke="white" stroke-width="102" stroke-linecap="round" stroke-linejoin="round"/>
<path d="M606.23 162.035L717.265 51H495.194" stroke="white" stroke-width="102" stroke-linecap="round" stroke-linejoin="round"/>
<path d="M828.354 51H939.39" stroke="white" stroke-width="102" stroke-linecap="round" stroke-linejoin="round"/>
<path d="M384.16 495.196H606.231V384.16" stroke="white" stroke-width="102" stroke-linecap="round" stroke-linejoin="round"/>
<path d="M1605.5 273.071C1544.16 273.071 1494.46 223.374 1494.46 162.035H1710.82L1827.62 51" stroke="white" stroke-width="102" stroke-linecap="round" stroke-linejoin="round"/>
<path d="M1716.53 384.16C1777.87 384.16 1827.56 433.857 1827.56 495.196" stroke="white" stroke-width="102" stroke-linecap="round" stroke-linejoin="round"/>
<path d="M1716.53 273.074H1827.62V162.039" stroke="white" stroke-width="102" stroke-linecap="round" stroke-linejoin="round"/>
<path d="M1605.5 495.199H1716.53" stroke="white" stroke-width="102" stroke-linecap="round" stroke-linejoin="round"/>
<path d="M1494.46 51H1605.5" stroke="white" stroke-width="102" stroke-linecap="round" stroke-linejoin="round"/>
<path d="M1383.42 384.16H1605.49" stroke="white" stroke-width="102" stroke-linecap="round" stroke-linejoin="round"/>
<path d="M1494.46 495.196V384.16" stroke="white" stroke-width="102" stroke-linecap="round" stroke-linejoin="round"/>
</svg>
