<svg width="1840" height="507" viewBox="0 0 1840 507" fill="none" xmlns="http://www.w3.org/2000/svg">
<path fill-rule="evenodd" clip-rule="evenodd" d="M1031.14 61.745C986.812 61.745 950.872 97.6849 950.872 142.013C950.872 150.201 947.62 158.054 941.83 163.844C936.04 169.633 928.188 172.886 920 172.886L808.859 172.886C791.809 172.886 777.987 159.064 777.987 142.013C777.987 124.963 791.809 111.141 808.859 111.141L892.493 111.141C906.59 47.5552 963.314 3.92564e-06 1031.14 0C1048.19 0 1062.01 13.8221 1062.01 30.8725C1062.01 47.9229 1048.19 61.745 1031.14 61.745ZM1586.85 61.745C1542.52 61.745 1506.58 97.6849 1506.58 142.013C1506.58 159.064 1492.76 172.886 1475.7 172.886C1458.65 172.886 1444.83 159.064 1444.83 142.013C1444.83 63.5841 1508.42 3.92564e-06 1586.85 0C1603.9 0 1617.72 13.8221 1617.72 30.8725C1617.72 47.9229 1603.9 61.745 1586.85 61.745ZM222.282 30.8725C222.282 13.8221 236.104 5.88846e-06 253.154 5.88846e-06C331.584 5.88846e-06 395.168 63.5841 395.168 142.013C395.168 159.064 381.346 172.886 364.295 172.886C347.245 172.886 333.423 159.064 333.423 142.013C333.423 97.6849 297.483 61.745 253.154 61.745C236.104 61.745 222.282 47.9229 222.282 30.8725ZM666.846 30.8725C666.846 13.8221 680.668 3.92564e-06 697.718 5.88846e-06L808.859 2.1591e-05C825.909 2.35538e-05 839.732 13.8221 839.732 30.8725C839.732 47.9229 825.909 61.745 808.859 61.745L697.718 61.745C680.668 61.745 666.846 47.9229 666.846 30.8725ZM1111.41 30.8725C1111.41 13.8221 1125.23 3.92564e-06 1142.28 5.88846e-06L1364.56 3.53308e-05C1377.05 3.72936e-05 1388.31 7.52188 1393.09 19.0581C1397.86 30.5944 1395.22 43.8732 1386.39 52.7027L1284.3 154.801V253.154C1284.3 270.205 1270.47 284.027 1253.42 284.027C1236.37 284.027 1222.55 270.205 1222.55 253.154V142.013C1222.55 133.826 1225.8 125.973 1231.59 120.183L1290.03 61.745L1142.28 61.745C1125.23 61.745 1111.41 47.9229 1111.41 30.8725ZM9.04235 9.04235C14.8321 3.25263 22.6846 7.85128e-06 30.8725 7.85128e-06L142.013 2.1591e-05C159.064 2.35538e-05 172.886 13.8221 172.886 30.8725C172.886 47.9229 159.064 61.745 142.013 61.745L61.745 61.745L61.745 142.013C61.745 159.064 47.9229 172.886 30.8725 172.886C13.8221 172.886 -1.96282e-06 159.064 0 142.013L9.8141e-06 30.8725C9.8141e-06 22.6846 3.25264 14.8321 9.04235 9.04235ZM444.564 30.8725C444.564 13.8221 458.386 7.85128e-06 475.436 7.85128e-06H586.577C603.628 7.85128e-06 617.45 13.8221 617.45 30.8725V142.013C617.45 159.064 603.628 172.886 586.577 172.886C569.527 172.886 555.705 159.064 555.705 142.013V61.745H506.309V142.013C506.309 159.064 492.487 172.886 475.436 172.886C458.386 172.886 444.564 159.064 444.564 142.013V30.8725ZM1676.16 9.04235C1688.21 -3.01411 1707.76 -3.01411 1719.82 9.04235L1830.96 120.183C1843.01 132.24 1843.01 151.787 1830.96 163.844C1818.9 175.9 1799.35 175.9 1787.3 163.844L1676.16 52.7026C1664.1 40.6462 1664.1 21.0988 1676.16 9.04235ZM1142.28 111.141C1159.33 111.141 1173.15 124.963 1173.15 142.013V333.423H1253.42C1270.47 333.423 1284.3 347.245 1284.3 364.295C1284.3 381.346 1270.47 395.168 1253.42 395.168L1043.93 395.168L941.83 497.266C929.774 509.323 910.226 509.323 898.17 497.266C886.113 485.21 886.113 465.663 898.17 453.606L1009.31 342.465C1015.1 336.675 1022.95 333.423 1031.14 333.423H1111.41V142.013C1111.41 124.963 1125.23 111.141 1142.28 111.141ZM120.183 120.183C132.24 108.127 151.787 108.127 163.844 120.183L265.942 222.282L364.295 222.282C381.346 222.282 395.168 236.104 395.168 253.154C395.168 270.205 381.346 284.027 364.295 284.027H253.154C244.966 284.027 237.114 280.774 231.324 274.984L120.183 163.844C108.127 151.787 108.127 132.24 120.183 120.183ZM1586.85 111.141C1603.9 111.141 1617.72 124.963 1617.72 142.013V253.154C1617.72 270.205 1603.9 284.027 1586.85 284.027H1475.7C1458.65 284.027 1444.83 270.205 1444.83 253.154C1444.83 236.104 1458.65 222.282 1475.7 222.282H1555.97V142.013C1555.97 124.963 1569.8 111.141 1586.85 111.141ZM586.577 222.282L808.859 222.282C825.909 222.282 839.732 236.104 839.732 253.154C839.732 270.205 825.909 284.027 808.859 284.027H703.745C719.419 306.861 728.591 334.508 728.591 364.295C728.591 381.346 714.768 395.168 697.718 395.168C680.668 395.168 666.846 381.346 666.846 364.295C666.846 319.967 630.906 284.027 586.577 284.027C569.527 284.027 555.705 270.205 555.705 253.154C555.705 236.104 569.527 222.282 586.577 222.282ZM0 253.154C1.96282e-06 236.104 13.8221 222.282 30.8725 222.282L142.013 222.282C159.064 222.282 172.886 236.104 172.886 253.154C172.886 270.205 159.064 284.027 142.013 284.027H30.8725C13.8221 284.027 -1.96282e-06 270.205 0 253.154ZM475.436 222.282C492.487 222.282 506.309 236.104 506.309 253.154V475.436C506.309 492.487 492.487 506.309 475.436 506.309C458.386 506.309 444.564 492.487 444.564 475.436V395.168L377.083 395.168L274.985 497.266C262.928 509.323 243.381 509.323 231.324 497.266C219.268 485.21 219.268 465.663 231.324 453.606L342.465 342.465C348.255 336.675 356.107 333.423 364.295 333.423L444.564 333.423V253.154C444.564 236.104 458.386 222.282 475.436 222.282ZM889.128 253.154C889.128 236.104 902.95 222.282 920 222.282L1031.14 222.282C1048.19 222.282 1062.01 236.104 1062.01 253.154C1062.01 270.205 1048.19 284.027 1031.14 284.027H920C902.95 284.027 889.128 270.205 889.128 253.154ZM1364.56 222.282C1381.61 222.282 1395.44 236.104 1395.44 253.154V336.788C1459.02 350.885 1506.58 407.609 1506.58 475.436C1506.58 492.487 1492.76 506.309 1475.7 506.309C1458.65 506.309 1444.83 492.487 1444.83 475.436C1444.83 431.108 1408.89 395.168 1364.56 395.168C1347.51 395.168 1333.69 381.346 1333.69 364.295V253.154C1333.69 236.104 1347.51 222.282 1364.56 222.282ZM1787.3 231.324C1799.35 219.268 1818.9 219.268 1830.96 231.324C1843.01 243.381 1843.01 262.928 1830.96 274.984L1719.82 386.125C1714.03 391.915 1706.17 395.168 1697.99 395.168H1617.72V475.436C1617.72 492.487 1603.9 506.309 1586.85 506.309C1569.8 506.309 1555.97 492.487 1555.97 475.436V364.295C1555.97 347.245 1569.8 333.423 1586.85 333.423H1685.2L1787.3 231.324ZM30.8725 333.423C47.9229 333.423 61.745 347.245 61.745 364.295L61.745 438.411C90.7512 426.314 111.141 397.684 111.141 364.295C111.141 347.245 124.963 333.423 142.013 333.423C159.064 333.423 172.886 347.245 172.886 364.295C172.886 442.725 109.302 506.309 30.8725 506.309C22.6846 506.309 14.8321 503.056 9.04234 497.266C3.25263 491.477 0 483.624 0 475.436L9.8141e-06 364.295C1.17769e-05 347.245 13.8221 333.423 30.8725 333.423ZM941.83 386.125L830.689 497.266C824.899 503.056 817.047 506.309 808.859 506.309L586.577 506.309C569.527 506.309 555.705 492.487 555.705 475.436C555.705 458.386 569.527 444.564 586.577 444.564L796.071 444.564L898.17 342.465C910.226 330.409 929.774 330.409 941.83 342.465C953.887 354.522 953.887 374.069 941.83 386.125ZM1142.28 444.564H1253.42C1270.47 444.564 1284.3 458.386 1284.3 475.436C1284.3 492.487 1270.47 506.309 1253.42 506.309H1142.28C1125.23 506.309 1111.41 492.487 1111.41 475.436C1111.41 458.386 1125.23 444.564 1142.28 444.564ZM1697.99 444.564H1809.13C1826.18 444.564 1840 458.386 1840 475.436C1840 492.487 1826.18 506.309 1809.13 506.309H1697.99C1680.94 506.309 1667.11 492.487 1667.11 475.436C1667.11 458.386 1680.94 444.564 1697.99 444.564Z" fill="white"/>
</svg>
