<svg width="1840" height="507" viewBox="0 0 1840 507" fill="none" xmlns="http://www.w3.org/2000/svg">
<path fill-rule="evenodd" clip-rule="evenodd" d="M0 30.8725C0 13.8221 13.8221 0 30.8725 0H253.154C261.342 0 269.195 3.25263 274.985 9.04234C280.774 14.8321 284.027 22.6846 284.027 30.8725V142.013C284.027 159.064 270.205 172.886 253.154 172.886C236.104 172.886 222.282 159.064 222.282 142.013L222.282 61.745H30.8725C13.8221 61.745 0 47.9229 0 30.8725ZM666.846 30.8725C666.846 13.8221 680.668 0 697.718 0H808.859C825.909 0 839.732 13.8221 839.732 30.8725V142.013C839.732 159.064 825.909 172.886 808.859 172.886C791.809 172.886 777.987 159.064 777.987 142.013V61.745H697.718C680.668 61.745 666.846 47.9229 666.846 30.8725ZM889.128 30.8725C889.128 13.8221 902.95 0 920 0H1031.14C1048.19 0 1062.01 13.8221 1062.01 30.8725V142.013C1062.01 159.064 1048.19 172.886 1031.14 172.886C1014.09 172.886 1000.27 159.064 1000.27 142.013V61.745H950.872V142.013C950.872 159.064 937.05 172.886 920 172.886C902.95 172.886 889.128 159.064 889.128 142.013V30.8725ZM1111.41 30.8725C1111.41 13.8221 1125.23 -1.96282e-06 1142.28 0L1253.42 1.37397e-05C1270.47 1.76654e-05 1284.3 13.8221 1284.3 30.8725C1284.3 47.9229 1270.47 61.745 1253.42 61.745L1142.28 61.745C1125.23 61.745 1111.41 47.9229 1111.41 30.8725ZM1333.69 30.8725C1333.69 13.8221 1347.51 0 1364.56 0H1586.85C1599.33 0 1610.59 7.52184 1615.37 19.0581C1620.15 30.5944 1617.51 43.8732 1608.68 52.7026L1497.53 163.844C1485.48 175.9 1465.93 175.9 1453.87 163.844C1441.82 151.787 1441.82 132.24 1453.87 120.183L1512.31 61.745H1395.44V253.154C1395.44 270.205 1381.61 284.027 1364.56 284.027C1347.51 284.027 1333.69 270.205 1333.69 253.154V172.886L1253.42 172.886C1236.37 172.886 1222.55 159.064 1222.55 142.013C1222.55 124.963 1236.37 111.141 1253.42 111.141L1333.69 111.141V30.8725ZM1667.11 30.8725C1667.11 13.8221 1680.94 -1.96282e-06 1697.99 0L1809.13 1.37397e-05C1826.18 1.76654e-05 1840 13.8221 1840 30.8725C1840 47.9229 1826.18 61.745 1809.13 61.745L1697.99 61.745C1680.94 61.745 1667.11 47.9229 1667.11 30.8725ZM475.436 5.88846e-06C492.487 3.92564e-06 506.309 13.8221 506.309 30.8725C506.309 75.201 542.249 111.141 586.577 111.141C594.765 111.141 602.618 114.394 608.407 120.183C614.197 125.973 617.45 133.826 617.45 142.013V253.154C617.45 270.205 603.628 284.027 586.577 284.027C569.527 284.027 555.705 270.205 555.705 253.154V169.52C492.119 155.424 444.564 98.6996 444.564 30.8725C444.564 13.8221 458.386 7.85128e-06 475.436 5.88846e-06ZM342.465 120.183C354.522 108.127 374.069 108.127 386.125 120.183C398.182 132.24 398.182 151.787 386.125 163.844L274.984 274.984C262.928 287.041 243.381 287.041 231.324 274.985C219.268 262.928 219.268 243.381 231.324 231.324L342.465 120.183ZM0 142.013C0 124.963 13.8221 111.141 30.8725 111.141H142.013C159.064 111.141 172.886 124.963 172.886 142.013C172.886 159.064 159.064 172.886 142.013 172.886H30.8725C13.8221 172.886 0 159.064 0 142.013ZM697.718 111.141C714.768 111.141 728.591 124.963 728.591 142.013V351.508L821.647 444.564H920C937.05 444.564 950.872 458.386 950.872 475.436C950.872 492.487 937.05 506.309 920 506.309H808.859C800.671 506.309 792.819 503.056 787.029 497.266L675.888 386.125C670.098 380.336 666.846 372.483 666.846 364.295V142.013C666.846 124.963 680.668 111.141 697.718 111.141ZM1830.96 163.844L1719.82 274.985C1714.03 280.774 1706.17 284.027 1697.99 284.027H1475.7C1458.65 284.027 1444.83 270.205 1444.83 253.154C1444.83 236.104 1458.65 222.282 1475.7 222.282H1685.2L1787.3 120.183C1799.35 108.127 1818.9 108.127 1830.96 120.183C1843.01 132.24 1843.01 151.787 1830.96 163.844ZM30.8725 222.282C47.9229 222.282 61.745 236.104 61.745 253.154L61.745 364.295C61.745 381.346 47.9229 395.168 30.8725 395.168C13.8221 395.168 0 381.346 0 364.295L3.92564e-06 253.154C5.88846e-06 236.104 13.8221 222.282 30.8725 222.282ZM142.013 222.282C159.064 222.282 172.886 236.104 172.886 253.154C172.886 297.483 208.826 333.423 253.154 333.423C261.342 333.423 269.195 336.675 274.984 342.465C280.774 348.255 284.027 356.107 284.027 364.295V475.436C284.027 492.487 270.205 506.309 253.154 506.309H142.013C124.963 506.309 111.141 492.487 111.141 475.436C111.141 458.386 124.963 444.564 142.013 444.564H222.282V391.802C158.696 377.706 111.141 320.981 111.141 253.154C111.141 236.104 124.963 222.282 142.013 222.282ZM475.436 222.282C492.487 222.282 506.309 236.104 506.309 253.154V333.423H586.577C603.628 333.423 617.45 347.245 617.45 364.295C617.45 381.346 603.628 395.168 586.577 395.168H506.309V475.436C506.309 492.487 492.487 506.309 475.436 506.309H364.295C347.245 506.309 333.423 492.487 333.423 475.436V364.295C333.423 347.245 347.245 333.423 364.295 333.423C381.346 333.423 395.168 347.245 395.168 364.295V444.564H444.564V253.154C444.564 236.104 458.386 222.282 475.436 222.282ZM777.987 253.154C777.987 236.104 791.809 222.282 808.859 222.282C876.686 222.282 933.41 269.837 947.507 333.423H1031.14C1048.19 333.423 1062.01 347.245 1062.01 364.295C1062.01 381.346 1048.19 395.168 1031.14 395.168H920C911.812 395.168 903.96 391.915 898.17 386.125C892.38 380.336 889.128 372.483 889.128 364.295C889.128 319.967 853.188 284.027 808.859 284.027C791.809 284.027 777.987 270.205 777.987 253.154ZM1000.27 253.154C1000.27 236.104 1014.09 222.282 1031.14 222.282H1253.42C1270.47 222.282 1284.3 236.104 1284.3 253.154C1284.3 270.205 1270.47 284.027 1253.42 284.027H1148.31C1163.98 306.861 1173.15 334.508 1173.15 364.295C1173.15 381.346 1159.33 395.168 1142.28 395.168C1125.23 395.168 1111.41 381.346 1111.41 364.295C1111.41 319.967 1075.47 284.027 1031.14 284.027C1014.09 284.027 1000.27 270.205 1000.27 253.154ZM1555.97 364.295C1555.97 347.245 1569.8 333.423 1586.85 333.423C1654.67 333.423 1711.4 380.978 1725.49 444.564H1778.26V364.295C1778.26 347.245 1792.08 333.423 1809.13 333.423C1826.18 333.423 1840 347.245 1840 364.295V475.436C1840 492.487 1826.18 506.309 1809.13 506.309H1697.99C1689.8 506.309 1681.95 503.056 1676.16 497.266C1670.37 491.477 1667.11 483.624 1667.11 475.436C1667.11 431.108 1631.17 395.168 1586.85 395.168C1569.8 395.168 1555.97 381.346 1555.97 364.295ZM1386.39 386.125L1275.25 497.266C1269.46 503.056 1261.61 506.309 1253.42 506.309L1031.14 506.309C1014.09 506.309 1000.27 492.487 1000.27 475.436C1000.27 458.386 1014.09 444.564 1031.14 444.564L1240.64 444.564L1342.73 342.465C1354.79 330.409 1374.34 330.409 1386.39 342.465C1398.45 354.522 1398.45 374.069 1386.39 386.125ZM1475.7 333.423C1492.76 333.423 1506.58 347.245 1506.58 364.295V475.436C1506.58 492.487 1492.76 506.309 1475.7 506.309H1364.56C1347.51 506.309 1333.69 492.487 1333.69 475.436C1333.69 458.386 1347.51 444.564 1364.56 444.564H1444.83V364.295C1444.83 347.245 1458.65 333.423 1475.7 333.423ZM555.705 475.436C555.705 458.386 569.527 444.564 586.577 444.564H697.718C714.768 444.564 728.591 458.386 728.591 475.436C728.591 492.487 714.768 506.309 697.718 506.309H586.577C569.527 506.309 555.705 492.487 555.705 475.436Z" fill="white"/>
</svg>
