<svg width="1840" height="507" viewBox="0 0 1840 507" fill="none" xmlns="http://www.w3.org/2000/svg">
<path fill-rule="evenodd" clip-rule="evenodd" d="M333.423 30.8725C333.423 13.8221 347.245 -1.96282e-06 364.295 0L475.436 9.8141e-06C492.487 1.17769e-05 506.309 13.8221 506.309 30.8725V142.013C506.309 150.201 503.056 158.054 497.266 163.844L386.125 274.985C380.336 280.774 372.483 284.027 364.295 284.027H142.013C124.963 284.027 111.141 270.205 111.141 253.154C111.141 236.104 124.963 222.282 142.013 222.282H351.508L444.564 129.226V61.745L364.295 61.745C347.245 61.745 333.423 47.9229 333.423 30.8725ZM697.718 61.745C653.39 61.745 617.45 97.6849 617.45 142.013C617.45 159.064 603.628 172.886 586.577 172.886C569.527 172.886 555.705 159.064 555.705 142.013C555.705 63.5841 619.289 3.92564e-06 697.718 0C714.768 0 728.591 13.8221 728.591 30.8725C728.591 47.9229 714.768 61.745 697.718 61.745ZM808.859 1.96282e-06C825.909 1.96282e-06 839.732 13.8221 839.732 30.8725V142.013C839.732 159.064 825.909 172.886 808.859 172.886C791.809 172.886 777.987 159.064 777.987 142.013V30.8725C777.987 13.8221 791.809 1.96282e-06 808.859 1.96282e-06ZM1697.99 61.745C1653.66 61.745 1617.72 97.6849 1617.72 142.013C1617.72 159.064 1603.9 172.886 1586.85 172.886C1569.8 172.886 1555.97 159.064 1555.97 142.013C1555.97 63.5841 1619.56 5.88846e-06 1697.99 7.85128e-06C1715.04 7.85128e-06 1728.86 13.8221 1728.86 30.8725C1728.86 47.9229 1715.04 61.745 1697.99 61.745ZM0 30.8725C0 13.8221 13.8221 1.17769e-05 30.8725 1.17769e-05H253.154C265.641 1.17769e-05 276.898 7.52185 281.677 19.0581C286.455 30.5944 283.814 43.8732 274.984 52.7026L163.844 163.844C151.787 175.9 132.24 175.9 120.183 163.844C108.127 151.787 108.127 132.24 120.183 120.183L178.622 61.745H30.8725C13.8221 61.745 0 47.9229 0 30.8725ZM1009.31 9.04235C1015.1 3.25264 1022.95 1.17769e-05 1031.14 1.17769e-05H1142.28C1159.33 1.17769e-05 1173.15 13.8221 1173.15 30.8725C1173.15 47.9229 1159.33 61.745 1142.28 61.745H1043.93L941.83 163.844C929.774 175.9 910.226 175.9 898.17 163.844C886.113 151.787 886.113 132.24 898.17 120.183L1009.31 9.04235ZM1253.42 1.17769e-05C1270.47 1.17769e-05 1284.3 13.8221 1284.3 30.8725C1284.3 109.302 1220.71 172.886 1142.28 172.886C1125.23 172.886 1111.41 159.064 1111.41 142.013C1111.41 124.963 1125.23 111.141 1142.28 111.141C1186.61 111.141 1222.55 75.201 1222.55 30.8725C1222.55 13.8221 1236.37 1.17769e-05 1253.42 1.17769e-05ZM1333.69 30.8725C1333.69 13.8221 1347.51 1.17769e-05 1364.56 1.17769e-05H1475.7C1492.76 1.17769e-05 1506.58 13.8221 1506.58 30.8725C1506.58 47.9229 1492.76 61.745 1475.7 61.745H1395.44V253.154C1395.44 270.205 1381.61 284.027 1364.56 284.027C1347.51 284.027 1333.69 270.205 1333.69 253.154V30.8725ZM1840 30.8725V142.013C1840 150.201 1836.75 158.054 1830.96 163.844L1719.82 274.985C1707.76 287.041 1688.21 287.041 1676.16 274.984C1664.1 262.928 1664.1 243.381 1676.16 231.324L1778.26 129.226V30.8725C1778.26 13.8221 1792.08 1.17769e-05 1809.13 1.17769e-05C1826.18 1.17769e-05 1840 13.8221 1840 30.8725ZM30.8725 111.141C47.9229 111.141 61.745 124.963 61.745 142.013V253.154C61.745 270.205 47.9229 284.027 30.8725 284.027C13.8221 284.027 0 270.205 0 253.154V142.013C0 124.963 13.8221 111.141 30.8725 111.141ZM697.718 111.141C714.768 111.141 728.591 124.963 728.591 142.013V253.154C728.591 270.205 714.768 284.027 697.718 284.027H586.577C569.527 284.027 555.705 270.205 555.705 253.154C555.705 236.104 569.527 222.282 586.577 222.282H666.846V142.013C666.846 124.963 680.668 111.141 697.718 111.141ZM1475.7 111.141C1492.76 111.141 1506.58 124.963 1506.58 142.013V225.647C1560.22 237.541 1602.46 279.776 1614.35 333.423H1697.99C1715.04 333.423 1728.86 347.245 1728.86 364.295C1728.86 381.346 1715.04 395.168 1697.99 395.168H1586.85C1569.8 395.168 1555.97 381.346 1555.97 364.295C1555.97 319.967 1520.03 284.027 1475.7 284.027C1458.65 284.027 1444.83 270.205 1444.83 253.154V142.013C1444.83 124.963 1458.65 111.141 1475.7 111.141ZM1031.14 111.141C1048.19 111.141 1062.01 124.963 1062.01 142.013V253.154C1062.01 270.205 1048.19 284.027 1031.14 284.027C1014.09 284.027 1000.27 270.205 1000.27 253.154V142.013C1000.27 124.963 1014.09 111.141 1031.14 111.141ZM941.83 231.324C953.887 243.381 953.887 262.928 941.83 274.985L830.689 386.125C824.899 391.915 817.047 395.168 808.859 395.168H697.718C680.668 395.168 666.846 381.346 666.846 364.295C666.846 347.245 680.668 333.423 697.718 333.423H796.071L898.17 231.324C910.226 219.268 929.774 219.268 941.83 231.324ZM475.436 222.282C492.487 222.282 506.309 236.104 506.309 253.154V336.788C569.894 350.885 617.45 407.609 617.45 475.436C617.45 492.487 603.628 506.309 586.577 506.309C569.527 506.309 555.705 492.487 555.705 475.436C555.705 431.108 519.765 395.168 475.436 395.168C458.386 395.168 444.564 381.346 444.564 364.295V253.154C444.564 236.104 458.386 222.282 475.436 222.282ZM1253.42 284.027H1142.28C1125.23 284.027 1111.41 270.205 1111.41 253.154C1111.41 236.104 1125.23 222.282 1142.28 222.282H1253.42C1270.47 222.282 1284.3 236.104 1284.3 253.154C1284.3 270.205 1270.47 284.027 1253.42 284.027ZM142.013 333.423C159.064 333.423 172.886 347.245 172.886 364.295V475.436C172.886 492.487 159.064 506.309 142.013 506.309H30.8725C13.8221 506.309 0 492.487 0 475.436C0 458.386 13.8221 444.564 30.8725 444.564H111.141L111.141 364.295C111.141 347.245 124.963 333.423 142.013 333.423ZM364.295 395.168C319.967 395.168 284.027 431.108 284.027 475.436C284.027 492.487 270.205 506.309 253.154 506.309C236.104 506.309 222.282 492.487 222.282 475.436C222.282 397.007 285.866 333.423 364.295 333.423C381.346 333.423 395.168 347.245 395.168 364.295C395.168 381.346 381.346 395.168 364.295 395.168ZM1809.13 222.282C1826.18 222.282 1840 236.104 1840 253.154V475.436C1840 492.487 1826.18 506.309 1809.13 506.309C1792.08 506.309 1778.26 492.487 1778.26 475.436V253.154C1778.26 236.104 1792.08 222.282 1809.13 222.282ZM920 333.423H1031.14C1048.19 333.423 1062.01 347.245 1062.01 364.295C1062.01 381.346 1048.19 395.168 1031.14 395.168H950.872V475.436C950.872 492.487 937.05 506.309 920 506.309H808.859C791.809 506.309 777.987 492.487 777.987 475.436C777.987 458.386 791.809 444.564 808.859 444.564H889.128V364.295C889.128 347.245 902.95 333.423 920 333.423ZM1364.56 395.168C1320.24 395.168 1284.3 431.108 1284.3 475.436C1284.3 492.487 1270.47 506.309 1253.42 506.309H1142.28C1125.23 506.309 1111.41 492.487 1111.41 475.436C1111.41 458.386 1125.23 444.564 1142.28 444.564H1225.92C1240.01 380.978 1296.74 333.423 1364.56 333.423C1381.61 333.423 1395.44 347.245 1395.44 364.295C1395.44 381.346 1381.61 395.168 1364.56 395.168ZM1506.58 364.295V475.436C1506.58 492.487 1492.76 506.309 1475.7 506.309H1364.56C1347.51 506.309 1333.69 492.487 1333.69 475.436C1333.69 458.386 1347.51 444.564 1364.56 444.564H1444.83V364.295C1444.83 347.245 1458.65 333.423 1475.7 333.423C1492.76 333.423 1506.58 347.245 1506.58 364.295ZM364.295 444.564H475.436C492.487 444.564 506.309 458.386 506.309 475.436C506.309 492.487 492.487 506.309 475.436 506.309H364.295C347.245 506.309 333.423 492.487 333.423 475.436C333.423 458.386 347.245 444.564 364.295 444.564ZM1555.97 475.436C1555.97 458.386 1569.8 444.564 1586.85 444.564H1697.99C1715.04 444.564 1728.86 458.386 1728.86 475.436C1728.86 492.487 1715.04 506.309 1697.99 506.309H1586.85C1569.8 506.309 1555.97 492.487 1555.97 475.436Z" fill="white"/>
</svg>
