<svg width="1840" height="507" viewBox="0 0 1840 507" fill="none" xmlns="http://www.w3.org/2000/svg">
<path fill-rule="evenodd" clip-rule="evenodd" d="M142.013 0C159.064 0 172.886 13.8221 172.886 30.8725V142.013C172.886 150.201 169.633 158.054 163.844 163.844C158.054 169.633 150.201 172.886 142.013 172.886L30.8725 172.886C13.8221 172.886 -1.96282e-06 159.064 0 142.013C1.96282e-06 124.963 13.8221 111.141 30.8725 111.141L111.141 111.141V30.8725C111.141 13.8221 124.963 0 142.013 0ZM253.154 0C270.205 0 284.027 13.8221 284.027 30.8725V253.154C284.027 270.205 270.205 284.027 253.154 284.027C236.104 284.027 222.282 270.205 222.282 253.154V30.8725C222.282 13.8221 236.104 0 253.154 0ZM333.423 30.8725C333.423 13.8221 347.245 0 364.295 0H697.718C710.205 0 721.462 7.52184 726.241 19.0581C731.019 30.5944 728.378 43.8732 719.548 52.7026L608.407 163.844C596.351 175.9 576.803 175.9 564.747 163.844C552.691 151.787 552.691 132.24 564.747 120.183L623.185 61.745H364.295C347.245 61.745 333.423 47.9229 333.423 30.8725ZM777.987 30.8725C777.987 13.8221 791.809 0 808.859 0H920C937.05 0 950.872 13.8221 950.872 30.8725V141.982C950.872 142.003 950.872 142.024 950.872 142.045V253.154C950.872 270.205 937.05 284.027 920 284.027C902.95 284.027 889.128 270.205 889.128 253.154V216.546L830.689 274.984C824.899 280.774 817.047 284.027 808.859 284.027H586.577C569.527 284.027 555.705 270.205 555.705 253.154C555.705 236.104 569.527 222.282 586.577 222.282H796.071L889.128 129.226V61.745H808.859C791.809 61.745 777.987 47.9229 777.987 30.8725ZM1031.14 0C1048.19 0 1062.01 13.8221 1062.01 30.8725V114.506C1125.6 128.603 1173.15 185.327 1173.15 253.154C1173.15 270.205 1159.33 284.027 1142.28 284.027C1125.23 284.027 1111.41 270.205 1111.41 253.154C1111.41 208.826 1075.47 172.886 1031.14 172.886C1014.09 172.886 1000.27 159.064 1000.27 142.013V30.8725C1000.27 13.8221 1014.09 0 1031.14 0ZM1333.69 61.745H1253.42C1236.37 61.745 1222.55 47.9229 1222.55 30.8725C1222.55 13.8221 1236.37 0 1253.42 0H1364.56C1381.61 0 1395.44 13.8221 1395.44 30.8725V142.013C1395.44 159.064 1381.61 172.886 1364.56 172.886C1347.51 172.886 1333.69 159.064 1333.69 142.013V61.745ZM1586.85 61.745H1475.7C1458.65 61.745 1444.83 47.9229 1444.83 30.8725C1444.83 13.8221 1458.65 0 1475.7 0H1586.85C1603.9 0 1617.72 13.8221 1617.72 30.8725C1617.72 47.9229 1603.9 61.745 1586.85 61.745ZM1787.3 9.04234C1799.35 -3.01411 1818.9 -3.01411 1830.96 9.04234C1843.01 21.0988 1843.01 40.6462 1830.96 52.7026L1719.82 163.844C1714.03 169.633 1706.17 172.886 1697.99 172.886H1512.73C1524.83 201.892 1553.46 222.282 1586.85 222.282C1603.9 222.282 1617.72 236.104 1617.72 253.154C1617.72 270.205 1603.9 284.027 1586.85 284.027C1508.42 284.027 1444.83 220.443 1444.83 142.013C1444.83 124.963 1458.65 111.141 1475.7 111.141H1685.2L1787.3 9.04234ZM475.436 111.141C492.487 111.141 506.309 124.963 506.309 142.013V364.295C506.309 381.346 492.487 395.168 475.436 395.168C458.386 395.168 444.564 381.346 444.564 364.295V284.027H364.295C347.245 284.027 333.423 270.205 333.423 253.154C333.423 236.104 347.245 222.282 364.295 222.282H444.564V142.013C444.564 124.963 458.386 111.141 475.436 111.141ZM1284.3 142.013V253.154C1284.3 270.205 1270.47 284.027 1253.42 284.027C1236.37 284.027 1222.55 270.205 1222.55 253.154V142.013C1222.55 124.963 1236.37 111.141 1253.42 111.141C1270.47 111.141 1284.3 124.963 1284.3 142.013ZM1840 142.013V253.154C1840 270.205 1826.18 284.027 1809.13 284.027H1697.99C1680.94 284.027 1667.11 270.205 1667.11 253.154C1667.11 236.104 1680.94 222.282 1697.99 222.282H1778.26V142.013C1778.26 124.963 1792.08 111.141 1809.13 111.141C1826.18 111.141 1840 124.963 1840 142.013ZM163.844 231.324C175.9 243.381 175.9 262.928 163.844 274.984L61.745 377.083V475.436C61.745 492.487 47.9229 506.309 30.8725 506.309C13.8221 506.309 0 492.487 0 475.436V364.295C0 356.107 3.25263 348.255 9.04234 342.465L120.183 231.324C132.24 219.268 151.787 219.268 163.844 231.324ZM1364.56 222.282C1381.61 222.282 1395.44 236.104 1395.44 253.154V333.423H1586.85C1603.9 333.423 1617.72 347.245 1617.72 364.295C1617.72 381.346 1603.9 395.168 1586.85 395.168H1506.58V475.436C1506.58 492.487 1492.76 506.309 1475.7 506.309C1458.65 506.309 1444.83 492.487 1444.83 475.436V395.168H1253.42C1236.37 395.168 1222.55 381.346 1222.55 364.295C1222.55 347.245 1236.37 333.423 1253.42 333.423H1333.69V253.154C1333.69 236.104 1347.51 222.282 1364.56 222.282ZM253.154 395.168C208.826 395.168 172.886 431.108 172.886 475.436C172.886 492.487 159.064 506.309 142.013 506.309C124.963 506.309 111.141 492.487 111.141 475.436C111.141 397.007 174.725 333.423 253.154 333.423C270.205 333.423 284.027 347.245 284.027 364.295C284.027 381.346 270.205 395.168 253.154 395.168ZM777.987 475.436C777.987 431.108 742.047 395.168 697.718 395.168C680.668 395.168 666.846 381.346 666.846 364.295C666.846 347.245 680.668 333.423 697.718 333.423C765.545 333.423 822.269 380.978 836.366 444.564H889.128V364.295C889.128 347.245 902.95 333.423 920 333.423C937.05 333.423 950.872 347.245 950.872 364.295V475.436C950.872 492.487 937.05 506.309 920 506.309H808.859C791.809 506.309 777.987 492.487 777.987 475.436ZM1667.11 364.295C1667.11 347.245 1680.94 333.423 1697.99 333.423C1776.42 333.423 1840 397.007 1840 475.436C1840 492.487 1826.18 506.309 1809.13 506.309C1792.08 506.309 1778.26 492.487 1778.26 475.436C1778.26 431.108 1742.32 395.168 1697.99 395.168C1680.94 395.168 1667.11 381.346 1667.11 364.295ZM586.577 333.423C603.628 333.423 617.45 347.245 617.45 364.295V475.436C617.45 492.487 603.628 506.309 586.577 506.309H364.295C347.245 506.309 333.423 492.487 333.423 475.436C333.423 458.386 347.245 444.564 364.295 444.564H555.705V364.295C555.705 347.245 569.527 333.423 586.577 333.423ZM1120.45 497.266L1009.31 386.125C997.254 374.069 997.254 354.522 1009.31 342.465C1021.37 330.409 1040.91 330.409 1052.97 342.465L1155.07 444.564H1253.42C1270.47 444.564 1284.3 458.386 1284.3 475.436C1284.3 492.487 1270.47 506.309 1253.42 506.309H1142.28C1134.09 506.309 1126.24 503.056 1120.45 497.266ZM1697.99 506.309H1586.85C1569.8 506.309 1555.97 492.487 1555.97 475.436C1555.97 458.386 1569.8 444.564 1586.85 444.564H1697.99C1715.04 444.564 1728.86 458.386 1728.86 475.436C1728.86 492.487 1715.04 506.309 1697.99 506.309Z" fill="white"/>
</svg>
